<svg id="Capa_1" data-name="Capa 1" xmlns="http://www.w3.org/2000/svg" viewBox="0 0 300 300"><defs><style>.cls-1{fill:#fff;}</style></defs><title>Mesa de trabajo 4 copia 6</title><path class="cls-1" d="M247.3,241.69l-31.12-75.11a3.75,3.75,0,0,0-6.93,2.87l28.13,67.9-25.65-7.43a3.74,3.74,0,0,0-4.33,1.79l-12.89,23.4-30.18-72.86a75.62,75.62,0,1,0-74.94-29.12L52.7,241.69a3.76,3.76,0,0,0,4.51,5L87.48,238l15.2,27.6A3.74,3.74,0,0,0,106,267.5h.21a3.74,3.74,0,0,0,3.26-2.31L138.5,195a3.75,3.75,0,0,0-6.93-2.87l-26.08,63L92.6,231.71a3.74,3.74,0,0,0-4.33-1.79l-25.65,7.43,32.2-77.73a75.36,75.36,0,0,0,55.18,24c2.25,0,4.47-.11,6.66-.3l33.91,81.86a3.74,3.74,0,0,0,3.26,2.31H194a3.74,3.74,0,0,0,3.28-1.94l15.2-27.6,30.27,8.77a3.75,3.75,0,0,0,4.51-5ZM81.94,108.06A68.06,68.06,0,1,1,150,176.12a68.14,68.14,0,0,1-68.06-68.06Z"/><path class="cls-1" d="M193.33,94a3.75,3.75,0,0,0-3-2.54l-25.23-4.23L153.33,64.52a3.75,3.75,0,0,0-6.66,0L134.85,87.21l-25.23,4.23a3.75,3.75,0,0,0-2.06,6.33L125.49,116l-3.77,25.31a3.75,3.75,0,0,0,5.38,3.91L150,133.83l22.9,11.41a3.78,3.78,0,0,0,3.88-.32,3.75,3.75,0,0,0,1.5-3.59L174.51,116l17.93-18.25A3.76,3.76,0,0,0,193.33,94ZM167.85,112.1a3.77,3.77,0,0,0-1,3.18l3,20-18.14-9a3.69,3.69,0,0,0-3.34,0l-18.14,9,3-20a3.77,3.77,0,0,0-1-3.18L118,97.65l20-3.36a3.76,3.76,0,0,0,2.71-2l9.36-18,9.36,18a3.76,3.76,0,0,0,2.71,2l20,3.36-14.2,14.45Z"/><path class="cls-1" d="M206.81,111.84a3.75,3.75,0,0,0-4.21,3.23,53.06,53.06,0,1,1,0-14,3.75,3.75,0,1,0,7.43-1,60.56,60.56,0,1,0,0,16,3.75,3.75,0,0,0-3.22-4.21Z"/></svg>