<svg id="Capa_1" data-name="Capa 1" xmlns="http://www.w3.org/2000/svg" viewBox="0 0 300 300"><defs><style>.cls-1{fill:#fff;}</style></defs><title>Mesa de trabajo 4 copia 7</title><path class="cls-1" d="M209.22,50.14H90.78a38.29,38.29,0,0,0-23,7.57,2.94,2.94,0,0,0,3.49,4.72A32.48,32.48,0,0,1,90.78,56H209.22A32.79,32.79,0,0,1,242,88.76v77.68a32.79,32.79,0,0,1-32.75,32.76H159.16a4.43,4.43,0,0,0-3.21,1.38l-40.2,42.75a2.07,2.07,0,0,1-3.57-1.42V203.6a4.41,4.41,0,0,0-4.4-4.4h-17A32.79,32.79,0,0,1,58,166.45V88.76a32.55,32.55,0,0,1,5.72-18.49A2.93,2.93,0,0,0,58.91,67a38.37,38.37,0,0,0-6.75,21.81v77.68a38.67,38.67,0,0,0,38.62,38.63h15.53v36.84a7.88,7.88,0,0,0,5,7.38,8,8,0,0,0,2.94.57,7.9,7.9,0,0,0,5.77-2.51l39.77-42.28h49.42a38.66,38.66,0,0,0,38.62-38.62V88.76A38.66,38.66,0,0,0,209.22,50.14Z"/><path class="cls-1" d="M192.17,97.31a26.17,26.17,0,0,0-37,0l-5.12,5.12a.17.17,0,0,1-.26,0l-5-5a26.13,26.13,0,0,0-37,37l37.85,37.85a6,6,0,0,0,8.57,0l20.8-20.8a2.93,2.93,0,1,0-4.15-4.15l-20.8,20.8a.24.24,0,0,1-.14.05.17.17,0,0,1-.13-.05L112,130.21a20.27,20.27,0,1,1,28.66-28.66l5,5a6,6,0,0,0,8.57,0l5.12-5.11A20.27,20.27,0,0,1,188,130.13l-8.76,8.76a2.94,2.94,0,1,0,4.15,4.16l8.76-8.77A26.18,26.18,0,0,0,192.17,97.31Z"/></svg>