<svg id="Capa_1" data-name="Capa 1" xmlns="http://www.w3.org/2000/svg" viewBox="0 0 300 300"><defs><style>.cls-1{fill:#fff;}</style></defs><title>Mesa de trabajo 4 copia 8</title><g id="surface1"><path class="cls-1" d="M175,158.2H159.55v-7.74H175Z"/><path class="cls-1" d="M39.61,142.72v31.34a14.62,14.62,0,0,0,9.25,13.65l12.53,5a3.89,3.89,0,0,0,1.44.28h1.38a23.14,23.14,0,0,0,43.66,0H211.23a23.13,23.13,0,0,0,43.65,0h13a3.87,3.87,0,0,0,3.87-3.87v-23a17.66,17.66,0,0,0-8.87-15.29,91.37,91.37,0,0,0-44.24-12l-13.27-7.24a131.42,131.42,0,0,0-62.79-16H138a131.6,131.6,0,0,0-68.79,19.5l-26.28,3.75A3.87,3.87,0,0,0,39.61,142.72Zm178,42.56a15.47,15.47,0,1,1,.31,3.09A15.28,15.28,0,0,1,217.58,185.28Zm-69.64-38.69h69.64a83.56,83.56,0,0,1,41.44,11,9.87,9.87,0,0,1,5,8.57v19.11h-7.73a23.22,23.22,0,1,0-46.43,0h-61.9Zm0-23a123.66,123.66,0,0,1,53.72,14.9l.74.4H147.94Zm-7.74,15.3H99.25l-6.76-6.75A122.36,122.36,0,0,1,138,123.38h2.19ZM70.56,185.28a15.51,15.51,0,1,1,.32,3.09A15.29,15.29,0,0,1,70.56,185.28ZM47.35,146.07l23.76-3.39a3.77,3.77,0,0,0,1.5-.55,126.74,126.74,0,0,1,12.27-6.71l10,10a3.88,3.88,0,0,0,2.73,1.13H140.2v38.68h-31A23.24,23.24,0,0,0,86,162.06a22.87,22.87,0,0,0-2.36.12c-.28,0-.56.09-.84.13-.49.07-1,.12-1.45.22-.3.06-.58.15-.87.22-.45.11-.9.21-1.35.35s-.58.21-1,.35-.83.29-1.16.43-.61.28-1,.45-.74.35-1.06.52a9.19,9.19,0,0,0-.91.55c-.34.22-.68.4-1,.6s-.61.44-.9.66-.59.42-.89.67-.58.53-.84.77-.53.46-.8.73-.54.6-.77.84a8.94,8.94,0,0,0-.72.77c-.25.3-.49.64-.7.93s-.42.53-.64.85-.44.67-.61,1-.38.59-.56.92-.34.7-.5,1a8.23,8.23,0,0,0-.48,1c-.14.35-.26.71-.39,1.06s-.27.7-.39,1.06-.19.73-.29,1.1-.22.76-.29,1.11-.13.74-.19,1.12-.14.78-.18,1.16,0,.81-.07,1.17-.06.7-.06,1.06l-11.1-4.46a6.91,6.91,0,0,1-4.38-6.46V158.2H59v-7.74H47.35Z"/></g><rect class="cls-1" x="48" y="95.5" width="107" height="5" rx="2.5"/><rect class="cls-1" x="18" y="95.5" width="25" height="5" rx="2.5" transform="translate(61 196) rotate(-180)"/><rect class="cls-1" x="16" y="113.5" width="48" height="5" rx="2.5"/></svg>