<svg id="Capa_1" data-name="Capa 1" xmlns="http://www.w3.org/2000/svg" viewBox="0 0 300 300"><defs><style>.cls-1{fill:#fff;}</style></defs><title>Mesa de trabajo 4 copia 9</title><path class="cls-1" d="M255.83,133.18l-34.11-52a4.17,4.17,0,0,0-3.48-1.88H81.92a4.17,4.17,0,0,0-3.47,1.87L44.28,133a4.24,4.24,0,0,0-.42.72,4.16,4.16,0,0,0,.66,4.46L61.84,158a4.16,4.16,0,0,0,6.26-5.49L56.82,139.62h56l28.12,96-31.77-36.29a4.16,4.16,0,0,0-6.26,5.48l44,50.26a4.16,4.16,0,0,0,6.26,0L200,201.56a4.16,4.16,0,0,0-6.26-5.48l-34.62,39.54,28.12-96h55.94l-25.87,29.55a4.16,4.16,0,1,0,6.26,5.48l31.91-36.45A4.17,4.17,0,0,0,255.83,133.18ZM55.38,131.3,81.92,91l26.41,40.28ZM89.63,87.6h52.68L116,127.77ZM150,91l26.41,40.27H123.6Zm0,146.09-28.56-97.5h57.12Zm34.12-109.25L157.72,87.6h52.82Zm7.7,3.43L218.24,91l26.41,40.27Z"/><path class="cls-1" d="M108.89,179.55a19.48,19.48,0,0,1-19.46-19.46,4.16,4.16,0,1,0-8.32,0,19.49,19.49,0,0,1-19.47,19.46,4.16,4.16,0,0,0,0,8.32,19.49,19.49,0,0,1,19.47,19.46,4.16,4.16,0,0,0,8.32,0,19.48,19.48,0,0,1,19.46-19.46,4.16,4.16,0,0,0,0-8.32ZM85.27,192.72a28,28,0,0,0-9-9,28,28,0,0,0,9-9,27.9,27.9,0,0,0,9,9A27.9,27.9,0,0,0,85.27,192.72Z"/><path class="cls-1" d="M252.35,60.14a12.5,12.5,0,0,1-12.48-12.48,4.16,4.16,0,0,0-8.32,0,12.5,12.5,0,0,1-12.48,12.48,4.16,4.16,0,0,0,0,8.32,12.5,12.5,0,0,1,12.48,12.48,4.16,4.16,0,0,0,8.32,0,12.5,12.5,0,0,1,12.48-12.48,4.16,4.16,0,0,0,0-8.32Zm-16.64,8.33a21.12,21.12,0,0,0-4.17-4.17,21.12,21.12,0,0,0,4.17-4.17,21.12,21.12,0,0,0,4.17,4.17A21.12,21.12,0,0,0,235.71,68.47Z"/><path class="cls-1" d="M211.07,183a4.16,4.16,0,1,0,1.22,2.94A4.21,4.21,0,0,0,211.07,183Z"/></svg>