<svg id="Layer_1" data-name="Layer 1" xmlns="http://www.w3.org/2000/svg" viewBox="0 0 256.21 206.52"><defs><style>.cls-1{opacity:0.09;}.cls-2{fill:#525252;}.cls-3{font-size:10.65px;font-family:Roboto-Medium, Roboto;letter-spacing:0.3em;}.cls-12,.cls-3{fill:#424242;}.cls-10,.cls-11,.cls-4,.cls-5,.cls-6,.cls-7,.cls-8,.cls-9{font-family:Roboto-Thin, Roboto;}.cls-5{letter-spacing:0.29em;}.cls-6{letter-spacing:0.28em;}.cls-7{letter-spacing:0.3em;}.cls-8{letter-spacing:0.31em;}.cls-9{letter-spacing:0.29em;}.cls-10{letter-spacing:0.28em;}.cls-11{letter-spacing:0.29em;}.cls-12{font-size:8.82px;font-family:Roboto-Light, Roboto;letter-spacing:1em;}.cls-13{letter-spacing:0.87em;}.cls-14{letter-spacing:0.99em;}.cls-15{letter-spacing:1em;}</style></defs><title>Artboard 2</title><ellipse class="cls-1" cx="118.97" cy="158.52" rx="104.5" ry="14"/><path class="cls-2" d="M43.6,88.23a18.58,18.58,0,0,1-8.19,5.38,34.1,34.1,0,0,1-11.72,1.91,23.16,23.16,0,0,1-11.85-3A19.65,19.65,0,0,1,4,84,30.23,30.23,0,0,1,1.13,70.82V67.28A32,32,0,0,1,3.76,53.79a19.41,19.41,0,0,1,7.58-8.72,21.78,21.78,0,0,1,11.6-3q9.25,0,14.48,4.41T43.6,59.31H33.16q-.72-4.47-3.16-6.54a10.11,10.11,0,0,0-6.74-2.07,9.51,9.51,0,0,0-8.33,4.11Q12.07,58.92,12,67v3.33q0,8.19,3.11,12.37t9.11,4.18q6,0,8.62-2.58v-9l-6.76,0-3-8H43.6Z"/><path class="cls-2" d="M20.92,138.06H11.85l-.38,17.46-11,2.77V103H21q9.8,0,15.11,4.37t5.31,12.33A17,17,0,0,1,39,129.16a16.61,16.61,0,0,1-7.42,6l12,22.59v.53l-14-3.77Zm-9.07-9.23H21a9.38,9.38,0,0,0,6.64-2.18,7.78,7.78,0,0,0,2.35-6,8.34,8.34,0,0,0-2.22-6.15c-1.48-1.5-3.75-2.24-6.81-2.24H11.85Z"/><path class="cls-2" d="M59.47,154.52,47.8,158.29V103H59.18Z"/><path class="cls-2" d="M239.21,148.68H218.86L215,160.29H202.64l21-56.35h10.76l21.09,56.35H243.12ZM222,139.28h14.09L229,118.18Z"/><path class="cls-2" d="M87.7,54.15a20.69,20.69,0,0,0-7.83-9,21.57,21.57,0,0,0-11.56-3.12,21.58,21.58,0,0,0-11.57,3.12,20.69,20.69,0,0,0-7.83,9,31.31,31.31,0,0,0-2.77,13.53v2.57A30.58,30.58,0,0,0,49,83.53a20.65,20.65,0,0,0,7.86,8.88,21.58,21.58,0,0,0,11.55,3.11,23.75,23.75,0,0,0,6.12-.77c.21-3.41,1.85-16.87,14.89-15.86A34.86,34.86,0,0,0,90.47,70V67.64A31.23,31.23,0,0,0,87.7,54.15Zm-8.1,16q0,8.11-2.93,12.35a9.44,9.44,0,0,1-8.29,4.24,9.53,9.53,0,0,1-8.44-4.4Q57,77.94,57,70V67.43q0-8.12,3-12.32a9.55,9.55,0,0,1,8.33-4.2,9.54,9.54,0,0,1,8.36,4.26q2.92,4.24,2.93,12.44Z"/><text class="cls-3" transform="translate(0 185.64)">C<tspan class="cls-4" x="10.15" y="0">O</tspan><tspan class="cls-5" x="20.44" y="0">N</tspan><tspan class="cls-4" x="31.02" y="0">TE</tspan><tspan class="cls-5" x="49.85" y="0">N</tspan><tspan class="cls-6" x="60.43" y="0">T</tspan><tspan class="cls-7" x="69.78" y="0" xml:space="preserve">  </tspan><tspan x="81.27" y="0">M</tspan><tspan class="cls-7" x="93.79" y="0">A</tspan><tspan class="cls-8" x="103.35" y="0">N</tspan><tspan class="cls-9" x="114.18" y="0">A</tspan><tspan class="cls-7" x="123.68" y="0">GEME</tspan><tspan class="cls-5" x="165.04" y="0">N</tspan><tspan class="cls-10" x="175.62" y="0">T</tspan><tspan class="cls-4" x="184.98" y="0" xml:space="preserve">  </tspan><tspan x="196.46" y="0">S</tspan><tspan class="cls-11" x="206.09" y="0">Y</tspan><tspan class="cls-7" x="215.56" y="0">STEM</tspan></text><path d="M95.86,80.28s9,21.93,20.94,29.91c0,0-2,8-2,12l-6.48.5L93.87,152.06s5,0,5,7H67s-1.49-5.48-2.49-6.48V135.61l12-16a55.62,55.62,0,0,0,1.22-12.86,9.32,9.32,0,0,0-.76-3.16C74.17,97.37,72.93,79.81,95.86,80.28Z"/><path d="M114.3,125.64a41.57,41.57,0,0,0,15,20.94,14.88,14.88,0,0,0-5,11h-6l-5-14s6-5,3-8-5-3-6-5S109.32,125.64,114.3,125.64Z"/><path d="M97.36,55.85v14s-1,12,23.92,38.89c0,0-7,20.93,3,27.91s10,11,10,11-2,3-6,8c-1,5-2,10,9,10s24.92-1,25.91-3,1-49.85-7-68.79c0,0-2-4,1-2s7,15,7,19.94l12-5s-11,8-8,15,11,23.92,11,23.92-9,4-9,7-2,9,6,10,20.93,0,20.93,0S222,87.76,214,60.84c-5-22.93-27.9-24.93-27.9-24.93l-1,9h-3s4,3,4,6h6s1,13-12,16.95c0,0-8.48-1.5-11-7a11.69,11.69,0,0,1,0-10s-5.48,2.49-8,1-7-4-7-4-3-1,0-4,1-3,0-5-1-7,0-9l19.94,3,10-4s0-7-9-7c0,0,1-15-11-21.94,0,0-14.95-2-42.86,30.91l10.47,12.46-6.13-5A16.67,16.67,0,0,0,108.35,36C103.19,38.29,98.26,43.74,97.36,55.85Z"/><path d="M158.66,35.42h19.93l5-1s-1,11-9,5h-1s-4,3-6,3c-.17,0,.16,0,0,0-1.9-.15-4.13-.17-5.34-1.63Z"/><path d="M173.61,43.39v4h4S175.6,43.39,173.61,43.39Z"/><path d="M176.6,43.39c-1,0,2,3,2,3s2,2,2,0S177.59,43.39,176.6,43.39Z"/><path d="M187,49.92c-2.62,0-9.84,4.39-9.84,4.39s12.33-4.56,15.36-2.94"/><text class="cls-12" transform="translate(54.63 204.13)">MU<tspan class="cls-13" x="31.06" y="0">L</tspan><tspan x="43.34" y="0">TI-S</tspan><tspan class="cls-14" x="93.96" y="0">I</tspan><tspan class="cls-15" x="105" y="0">TES</tspan></text></svg>