<svg xmlns="http://www.w3.org/2000/svg" xmlns:xlink="http://www.w3.org/1999/xlink" viewBox="0 0 40 40"><defs><style>.cls-1{fill:none;}.cls-2{isolation:isolate;}.cls-3{fill:#f4f4f4;}.cls-4{fill:url(#linear-gradient);}.cls-5{clip-path:url(#clip-path);}.cls-6{fill:#b1b7ef;stroke:url(#linear-gradient-2);}.cls-10,.cls-6{stroke-miterlimit:10;}.cls-6,.cls-7{opacity:0.78;}.cls-8{fill:#000856;}.cls-9{opacity:0.12;mix-blend-mode:overlay;}.cls-10{fill:#c2c5ff;stroke:url(#linear-gradient-3);}.cls-11{opacity:0.07;}.cls-12{fill:url(#linear-gradient-4);}.cls-13{fill:url(#linear-gradient-5);}.cls-14{fill:url(#linear-gradient-6);}</style><linearGradient id="linear-gradient" x1="1.65" y1="12.84" x2="18.7" y2="12.84" gradientUnits="userSpaceOnUse"><stop offset="0" stop-color="#55d6ff"/><stop offset="0.01" stop-color="#51c7ff"/><stop offset="0.06" stop-color="#459dff"/><stop offset="0.1" stop-color="#3b7bff"/><stop offset="0.14" stop-color="#3460ff"/><stop offset="0.19" stop-color="#2e4dff"/><stop offset="0.23" stop-color="#2b42ff"/><stop offset="0.28" stop-color="#2a3eff"/><stop offset="0.67" stop-color="#0022e9"/><stop offset="0.89" stop-color="#00087f"/><stop offset="1" stop-color="#0050e9"/></linearGradient><clipPath id="clip-path"><rect class="cls-1" x="10.18" y="3.99" width="28.33" height="10.62"/></clipPath><linearGradient id="linear-gradient-2" x1="18.38" y1="18.87" x2="37.53" y2="18.87" gradientTransform="matrix(-0.1, -0.8, 0.84, -0.1, 10.32, 37.13)" xlink:href="#linear-gradient"/><linearGradient id="linear-gradient-3" x1="24.16" y1="23.82" x2="43.38" y2="23.82" gradientTransform="matrix(0.34, -0.82, 0.74, 0.31, 0.94, 34.5)" xlink:href="#linear-gradient"/><linearGradient id="linear-gradient-4" x1="1.65" y1="22.57" x2="38.9" y2="22.57" xlink:href="#linear-gradient"/><linearGradient id="linear-gradient-5" x1="-8.49" y1="14.62" x2="40.77" y2="14.62" xlink:href="#linear-gradient"/><linearGradient id="linear-gradient-6" x1="1.65" y1="26.47" x2="38.1" y2="26.47" xlink:href="#linear-gradient"/></defs><title>Artboard 1</title><g class="cls-2"><g id="Layer_1" data-name="Layer 1"><path class="cls-3" d="M13.7,14.86l-10.44,0A.91.91,0,0,1,2.38,14v-2.1a.9.9,0,0,1,.88-.93h8.21a.85.85,0,0,1,.58.23l2.23,2.07A1,1,0,0,1,13.7,14.86Z"/><path class="cls-4" d="M2.65,14.37v-2.1a2,2,0,0,1,2-2h8a2,2,0,0,1,1.4.58l2.86,2.86h0v0l.48.47h0l.92.92a.73.73,0,0,0,.38-.39.76.76,0,0,0-.17-.82L14.64,10.1a2.72,2.72,0,0,0-1.92-.8H4.37A2.72,2.72,0,0,0,1.65,12v4.35l1-1Z"/><path class="cls-3" d="M14.58,17.25h0a1.25,1.25,0,0,0,1.25,1.25H31.18a1.25,1.25,0,0,1,1.25,1.25v16A1.25,1.25,0,0,0,33.68,37h1.24a1.25,1.25,0,0,0,1.25-1.25V17.25A1.25,1.25,0,0,0,34.92,16H15.83A1.25,1.25,0,0,0,14.58,17.25Z"/><g class="cls-5"><path class="cls-6" d="M28.5,6.14l1.83,12.33a.88.88,0,0,1-.77,1l-10.1,1a1,1,0,0,1-1-.82L16.59,7.33a.87.87,0,0,1,.77-1l10.1-1A1,1,0,0,1,28.5,6.14Z"/><g class="cls-7"><path class="cls-8" d="M26.7,8.23l-4.45.65-.8.11h0l-1.72.25a.61.61,0,0,0-.52.7l1,7a.61.61,0,0,0,.7.52l7-1a.62.62,0,0,0,.52-.69l-1-7A.62.62,0,0,0,26.7,8.23ZM28,15.79a.21.21,0,0,1-.17.24l-7,1a.22.22,0,0,1-.24-.18l-1-7a.21.21,0,0,1,.18-.23l7-1a.2.2,0,0,1,.23.17l1,7Z"/></g><g class="cls-7"><path class="cls-8" d="M28.42,10,24,10.61l-.81.12h0L21.44,11a.63.63,0,0,0-.53.7l1,7a.62.62,0,0,0,.7.52l7-1a.61.61,0,0,0,.52-.7l-1-7A.6.6,0,0,0,28.42,10Zm1.3,7.56a.2.2,0,0,1-.18.23l-7,1a.2.2,0,0,1-.23-.17l-1-7a.2.2,0,0,1,.17-.23l7-1a.2.2,0,0,1,.23.17l1,7Z"/></g><polygon class="cls-9" points="26.76 4.92 21.92 15.01 23.86 16.37 28.65 4.8 26.76 4.92"/><path class="cls-10" d="M37.71,9.75,32.52,22.91a.89.89,0,0,1-1.16.51l-8.58-3.73a1,1,0,0,1-.48-1.23L27.49,5.3a.87.87,0,0,1,1.16-.5l8.57,3.72A1,1,0,0,1,37.71,9.75Z"/><g class="cls-7"><path class="cls-8" d="M35.6,10.25,31.41,8.63l-.76-.3h0L29,7.7a.62.62,0,0,0-.8.35l-2.55,6.58a.62.62,0,0,0,.35.79L32.6,18a.63.63,0,0,0,.8-.36L36,11.05A.62.62,0,0,0,35.6,10.25ZM33,17.48a.2.2,0,0,1-.26.11L26.17,15a.2.2,0,0,1-.12-.26L28.6,8.2a.21.21,0,0,1,.27-.12l6.58,2.55a.21.21,0,0,1,.11.27L33,17.48Z"/><path class="cls-8" d="M33.1,10.4a.25.25,0,0,0-.12-.11.22.22,0,0,0-.26.12.22.22,0,0,0,0,.16.2.2,0,0,0,.11.11.22.22,0,0,0,.16,0,.2.2,0,0,0,.11-.11A.22.22,0,0,0,33.1,10.4Z"/><path class="cls-8" d="M34.7,11,34,10.67a.21.21,0,0,0-.27.12.2.2,0,0,0,.12.26l.55.22-1,2.73-.93-2.11a.19.19,0,0,0-.12-.11.19.19,0,0,0-.15,0l-1.41.62a.2.2,0,0,0-.1.27.2.2,0,0,0,.27.11l1.22-.54,1,2.29h0l-.37.94-4.85-1.89,1.93-.85.63,1.43a.2.2,0,0,0,.27.11.2.2,0,0,0,.1-.27l-.71-1.62a.19.19,0,0,0-.12-.11.16.16,0,0,0-.15,0l-2.12.93,1.53-3.94,2.56,1a.22.22,0,0,0,.27-.12A.21.21,0,0,0,32,9.89L29.2,8.82a.22.22,0,0,0-.27.12l-1.78,4.59a.21.21,0,0,0,.12.27l5.51,2.13a.2.2,0,0,0,.26-.11l1.78-4.59A.21.21,0,0,0,34.7,11Z"/><path class="cls-8" d="M30.55,10.3a.65.65,0,0,0-.47,1.22.65.65,0,1,0,.47-1.22Zm-.32.84a.25.25,0,0,1,.18-.46.25.25,0,0,1,.14.32A.26.26,0,0,1,30.23,11.14Z"/></g><polyline class="cls-11" points="16.81 12.55 36.88 13.88 35.65 16.69 17.22 16.12"/></g><path class="cls-12" d="M2.65,16.37a1.26,1.26,0,0,1,1.26-1.25h22.2c.91,0,.83-1,0-1H3.91a2.26,2.26,0,0,0-2.26,2.25v14c0,.85,1,.83,1,0Z"/><path class="cls-13" d="M32.33,14.12h-3.1a.5.5,0,1,0-.1,1l3.2,0s.65.07.65-.48S32.33,14.12,32.33,14.12Z"/><path class="cls-14" d="M35.85,14.12h-.52s-.89-.14-.87.5.87.5.87.5h.52a1.25,1.25,0,0,1,1.25,1.25V36.58a1.25,1.25,0,0,1-1.25,1.25H3.91a1.26,1.26,0,0,1-1.26-1.25V33.4c0-.95-1-.94-1,0v3.19a2.26,2.26,0,0,0,2.26,2.25H35.85a2.25,2.25,0,0,0,2.25-2.25V16.37A2.25,2.25,0,0,0,35.85,14.12Z"/><circle class="cls-3" cx="7.97" cy="31.84" r="1.72"/><circle class="cls-3" cx="8.48" cy="27.13" r="0.95"/><circle class="cls-3" cx="12.32" cy="30.75" r="0.94"/></g></g></svg>