<svg id="Capa_1" data-name="Capa 1" xmlns="http://www.w3.org/2000/svg" xmlns:xlink="http://www.w3.org/1999/xlink" viewBox="0 0 200 50"><defs><style>.cls-1{fill:url(#vdtrips-gradient);}.cls-2{font-size:45.11px;fill:#606060;font-family:MyriadPro-Regular, Myriad Pro;}.cls-3{letter-spacing:0em;}</style><linearGradient id="vdtrips-gradient" x1="24.68" y1="9.03" x2="99.13" y2="37.52" gradientUnits="userSpaceOnUse"><stop offset="0" stop-color="#93278f"/><stop offset="0.1" stop-color="#8a288f"/><stop offset="0.26" stop-color="#702a90"/><stop offset="0.46" stop-color="#472f91"/><stop offset="0.57" stop-color="#2e3192"/><stop offset="0.86" stop-color="aqua"/></linearGradient></defs><title>vdtrips logo</title><path class="cls-1" d="M89.38,11.29A18,18,0,0,0,82,4.44,23.62,23.62,0,0,0,71.05,2H55.15a.5.5,0,0,0-.47.31L41.2,32.81a.51.51,0,0,1-.94,0L26.9,2.31A.51.51,0,0,0,26.43,2H21.56a.51.51,0,0,0-.47.72L37.71,40.5a.54.54,0,0,0,.48.31H43a.52.52,0,0,0,.47-.31L58.17,7a.52.52,0,0,1,.48-.31l12.07.14A18,18,0,0,1,79,8.65a13.3,13.3,0,0,1,5.52,5.13,14.79,14.79,0,0,1,1.94,7.62A14.8,14.8,0,0,1,84.53,29,13.34,13.34,0,0,1,79,34.15,18,18,0,0,1,70.72,36h-10a.51.51,0,0,1-.52-.51V16.12a.51.51,0,0,0-1-.22l-4.51,10a.5.5,0,0,0,0,.21V40.29a.51.51,0,0,0,.51.52H71.05A23.74,23.74,0,0,0,82,38.37a18,18,0,0,0,7.4-6.85A19.4,19.4,0,0,0,92,21.4,19.36,19.36,0,0,0,89.38,11.29Z"/><text class="cls-2" transform="translate(95.01 40.72)">t<tspan x="14.93" y="0">r</tspan><tspan x="29.86" y="0">ips</tspan></text></svg>