<?xml version="1.0" encoding="utf-8"?>
<!-- Generator: Adobe Illustrator 23.0.1, SVG Export Plug-In . SVG Version: 6.00 Build 0)  -->
<svg version="1.1" id="Capa_1" xmlns="http://www.w3.org/2000/svg" xmlns:xlink="http://www.w3.org/1999/xlink" x="0px" y="0px"
	 viewBox="0 0 200 50" style="enable-background:new 0 0 200 50;" xml:space="preserve">
<style type="text/css">
	.st0{fill:url(#SVGID_1_);}
	.st1{enable-background:new    ;}
	.st2{fill:#606060;}
</style>
<title>vdtrips logo</title>
<linearGradient id="SVGID_1_" gradientUnits="userSpaceOnUse" x1="24.6784" y1="42.9658" x2="99.1284" y2="14.4758" gradientTransform="matrix(1 0 0 -1 0 52)">
	<stop  offset="0" style="stop-color:#93278F"/>
	<stop  offset="0.1" style="stop-color:#8A288F"/>
	<stop  offset="0.26" style="stop-color:#702A90"/>
	<stop  offset="0.46" style="stop-color:#472F91"/>
	<stop  offset="0.57" style="stop-color:#2E3192"/>
	<stop  offset="0.86" style="stop-color:#00FFFF"/>
</linearGradient>
<path class="st0" d="M89.4,11.3C87.6,8.4,85.1,6,82,4.4C78.6,2.8,74.8,1.9,71.1,2H55.2c-0.2,0-0.4,0.1-0.5,0.3L41.2,32.8
	c-0.1,0.3-0.4,0.4-0.7,0.3c-0.1-0.1-0.2-0.1-0.3-0.3L26.9,2.3C26.8,2.1,26.6,2,26.4,2h-4.9C21.3,2,21,2.2,21,2.5c0,0.1,0,0.1,0,0.2
	l16.6,37.8c0.1,0.2,0.3,0.3,0.5,0.3H43c0.2,0,0.4-0.1,0.5-0.3L58.2,7c0.1-0.2,0.3-0.3,0.5-0.3l12.1,0.1c2.9-0.1,5.7,0.6,8.3,1.8
	c2.3,1.1,4.2,2.9,5.5,5.1c1.3,2.3,2,5,1.9,7.6c0.1,2.7-0.6,5.3-1.9,7.6c-1.3,2.2-3.2,4-5.5,5.2c-2.6,1.3-5.4,1.9-8.3,1.8h-10
	c-0.3,0-0.5-0.2-0.5-0.5c0,0,0,0,0,0V16.1c0.1-0.3-0.1-0.5-0.4-0.6c-0.3-0.1-0.5,0.1-0.6,0.4l0,0l-4.5,10c0,0.1,0,0.1,0,0.2v14.2
	c0,0.3,0.2,0.5,0.5,0.5c0,0,0,0,0,0h15.9c3.8,0.1,7.5-0.8,10.9-2.4c3.1-1.5,5.6-3.9,7.4-6.9c1.8-3.1,2.7-6.6,2.6-10.1
	C92.1,17.9,91.2,14.4,89.4,11.3z"/>
<g class="st1">
	<path class="st2" d="M105.4,12.3v6.3h4.9v5.1h-4.9v8c0,2.7,0.6,3.9,2.7,3.9c0.9,0,1.5-0.1,2-0.2l0,5.2c-0.9,0.4-2.5,0.6-4.5,0.6
		c-2.2,0-4.1-0.8-5.1-1.9c-1.3-1.3-1.9-3.4-1.9-6.5v-9h-2.9v-5.1h2.9v-4.8L105.4,12.3z"/>
</g>
<g class="st1">
	<path class="st2" d="M112.7,25.9c0-3.2-0.1-5.4-0.2-7.3h5.9l0.2,4.1h0.2c1.1-3.2,3.8-4.6,6-4.6c0.6,0,0.9,0,1.4,0.1v6.4
		c-0.5-0.1-1.1-0.2-1.8-0.2c-2.5,0-4.2,1.4-4.7,3.5c-0.1,0.5-0.1,1-0.1,1.5v11.2h-6.9V25.9z"/>
</g>
<g class="st1">
	<path class="st2" d="M134.7,12.5c0,1.9-1.4,3.4-3.7,3.4c-2.2,0-3.6-1.5-3.6-3.4c0-2,1.4-3.5,3.6-3.5
		C133.3,9.1,134.7,10.5,134.7,12.5z M127.6,40.7V18.7h6.9v22.1H127.6z"/>
	<path class="st2" d="M140,26.1c0-2.9-0.1-5.4-0.2-7.4h6l0.3,3.1h0.1c1.6-2.3,4.1-3.6,7.4-3.6c4.8,0,9.2,4.2,9.2,11.2
		c0,8-5.1,11.8-10,11.8c-2.7,0-4.7-1.1-5.7-2.5h-0.1v11H140V26.1z M146.8,31.2c0,0.5,0,1,0.1,1.4c0.5,1.8,2,3.2,4,3.2
		c3,0,4.7-2.5,4.7-6.2c0-3.5-1.6-6.2-4.6-6.2c-1.9,0-3.7,1.4-4.1,3.5c-0.1,0.4-0.1,0.8-0.1,1.2V31.2z"/>
	<path class="st2" d="M166.9,34.7c1.3,0.8,3.9,1.7,5.9,1.7c2.1,0,2.9-0.7,2.9-1.8c0-1.1-0.7-1.7-3.2-2.5c-4.6-1.5-6.3-4-6.3-6.6
		c0-4.1,3.5-7.2,9-7.2c2.6,0,4.9,0.6,6.2,1.3l-1.2,4.7c-1-0.5-2.9-1.3-4.8-1.3c-1.7,0-2.6,0.7-2.6,1.8c0,1,0.9,1.6,3.6,2.5
		c4.2,1.4,6,3.6,6,6.8c0,4.1-3.2,7.1-9.6,7.1c-2.9,0-5.5-0.6-7.1-1.5L166.9,34.7z"/>
</g>
</svg>
